<svg xmlns="http://www.w3.org/2000/svg" viewBox="0 0 74.55 29.73"><defs><style>.cls-1{fill:#fff;}</style></defs><title>アセット 2</title><g id="レイヤー_2" data-name="レイヤー 2"><g id="レイヤー_1-2" data-name="レイヤー 1"><path class="cls-1" d="M0,2.21H3V29.73H0Z"/><path class="cls-1" d="M2.8,10.57A43.63,43.63,0,0,1,7.29,5.26C15.11-2.55,22-.18,26.76,4.6c3.09,3.09,4.9,6.54,5,10.29.05,3.47-1.82,7.28-5.37,10.83a48.21,48.21,0,0,1-4.42,4ZM22.44,26A23.22,23.22,0,0,0,25,23.62c5.27-5.26,5.16-11.13-.4-16.7-5.06-5.06-10.5-5.08-15.56,0A21.21,21.21,0,0,0,6.48,10Z"/><path class="cls-1" d="M40.57,29.73,30.3,19.46,49.76,0,59.6,9.83l-1.79,1.79L50.09,3.91,43.51,10.5l7.25,7.25L49,19.51l-7.26-7.25-7.53,7.53,8.15,8.15Z"/><path class="cls-1" d="M74.55,29.73H71.37l-3-8.92H58.84L56,29.73H52.88L62,2.21h3.47ZM67.79,18.42l-2.71-8.16c-.57-1.88-1-3.61-1.4-5.24h-.11c-.36,1.66-.87,3.4-1.37,5.13l-2.75,8.27Z"/></g></g></svg>